<svg xmlns="http://www.w3.org/2000/svg" viewBox="0 0 200 80" width="200" height="80">
  <!-- Background -->
  <rect width="200" height="80" fill="#e8e8e8" rx="8"/>

  <!-- Blue curve (left) -->
  <path d="M 20 40 Q 25 35 30 30 Q 35 25 40 25 Q 45 25 45 30 Q 45 40 35 50 Q 25 55 15 60 Z" fill="#003d82"/>

  <!-- Red curve (right) -->
  <path d="M 35 50 Q 40 48 45 45 Q 50 42 55 38 Q 58 35 62 32 Q 60 38 58 45 Q 55 55 48 62 Q 40 65 32 65 Q 28 65 25 63 Z" fill="#d71c1c"/>

  <!-- INFOTEL text -->
  <text x="75" y="62" font-family="Arial, sans-serif" font-size="48" font-weight="bold" fill="#d71c1c" letter-spacing="2">INFOTEL</text>

  <!-- Registered trademark symbol -->
  <circle cx="190" cy="18" r="6" fill="none" stroke="#003d82" stroke-width="1"/>
  <text x="187" y="22" font-size="8" fill="#003d82">®</text>
</svg>